<?xml version="1.0" encoding="utf-8"?>
<!-- Generator: Adobe Illustrator 21.0.0, SVG Export Plug-In . SVG Version: 6.00 Build 0)  -->
<svg version="1.1" id="Слой_1" xmlns="http://www.w3.org/2000/svg" xmlns:xlink="http://www.w3.org/1999/xlink" x="0px" y="0px"
	 viewBox="0 0 199 71.8" style="enable-background:new 0 0 199 71.8;" xml:space="preserve">
<style type="text/css">
	.st0{filter:url(#Adobe_OpacityMaskFilter);}
	.st1{fill:#FFFFFF;}
	.st2{mask:url(#mask-2);fill:#FF2E60;}
</style>
<title>nails_black_logo</title>
<desc>Created with Sketch.</desc>
<g id="Desktop-_x2013_-Home" transform="translate(-653.000000, -69.000000)">
	<g id="nails_black_logo" transform="translate(653.000000, 69.000000)">
		<g id="Group-3" transform="translate(110.619718, 0.000000)">
			<g id="Clip-2">
			</g>
			<defs>
				<filter id="Adobe_OpacityMaskFilter" filterUnits="userSpaceOnUse" x="0.3" y="11.4" width="87.3" height="50.6">
					<feColorMatrix  type="matrix" values="1 0 0 0 0  0 1 0 0 0  0 0 1 0 0  0 0 0 1 0"/>
				</filter>
			</defs>
			<mask maskUnits="userSpaceOnUse" x="0.3" y="11.4" width="87.3" height="50.6" id="mask-2">
				<g class="st0">
					<polygon id="path-1" class="st1" points="0.3,61.9 87.6,61.9 87.6,11.4 44,11.4 0.3,11.4 					"/>
				</g>
			</mask>
			<path id="Fill-1" class="st2" d="M85.7,31.5L85.7,31.5h-0.2l-0.6,0.2l-0.2,0.1l-0.4,0.1L84,32.2l1-0.5h0.7V31.5z M83,30.5
				l0.2,0.1h0.2v0.1l0.1,0.1h0.2l0.4-0.1l0.2-0.1l-0.4-0.1l-0.1,0.1l0.1-0.1h-0.1l-0.4-0.1L83,30.5z M84.1,31.6l-0.5,0.1l-1.3,0.1
				L81.8,32v-0.1L81.5,32l0.1,0.1v0.1h0.3l0.3-0.1H83l0.2-0.1l0.3-0.2L84.1,31.6z M79.9,33.1l-0.5,0.1l-0.3,0.1l0.4-0.1L79.9,33.1z
				 M77.3,34.9L77,34.7v-0.1l0.1-0.1l-0.4,0.1l-0.2,0.1v0.2H77L77.3,34.9z M76,32.8l0.1,0.2l0.4-0.1l0.2-0.1l0.3-0.2h-0.2l-0.3,0.1
				L76,32.8z M81.3,32.2l-1.1,0.1l-0.6,0.3h-0.1l-0.9,0.2L77.8,33L76,33.3h-0.1l-0.3-0.1l-0.5,0.2L75,33.6l-0.1,0.1l0.5-0.1l0.2,0.1
				l0.4,0.1l0.4,0.1l0.2-0.1l-0.3,0.2l0.2,0.1l0.4-0.1l-0.1-0.1h-0.1l0.7-0.3l0.1-0.1h0.1l0.4-0.1l0.6-0.3h0.9l0.2-0.1l-0.1-0.1
				l0.1-0.1l0.7-0.2l0.4-0.1L81.3,32.2z M77,34.4h-0.3l-0.3,0.1l0.1-0.1l0.3-0.1h-0.1l-0.4,0.1l-0.5-0.1l-0.6,0.1l-0.9,0.3l0.1,0.1
				l0.1-0.1H75l0.8-0.1l0.4,0.1h0.1l0.1-0.1l0.4-0.1l0.3-0.1l0.2-0.1h0.1l0.4-0.1l-0.1-0.1L77,34.4z M73.6,33.1l-0.3-0.1l-0.4,0.2
				h-0.1l0.1,0.1l0.2-0.1l0.1,0.1l0.3-0.1L73.6,33.1z M73.1,35.2h-0.1l-0.1-0.1l-0.3,0.1l0.3,0.1L73.1,35.2z M71.9,36.6h-0.5
				l-0.5,0.1L71.9,36.6z M70.6,35.9l-1-0.1h-0.4L69,35.6h0.4l-0.3-0.1l-0.3,0.3l0.2,0.1h0.4L70,36h0.4L70.6,35.9z M67.7,34.9
				l-0.1,0.1l0.4,0.1h1l0.1-0.1l-0.1-0.1l-0.1,0.1l-0.3-0.1h-0.4L68,34.9l-0.1-0.1H67.7z M68,35.3h-0.9l-0.1,0.1h0.2l0.4,0.1
				l0.7-0.1L68,35.3z M70.2,36.2l-0.1-0.1l-0.3-0.1h-0.4L69.1,36h-1.2l-0.9-0.1l-0.6-0.1l0.1,0.1l1.2,0.1h0.2l0.8,0.1l0.1,0.1
				l0.1,0.1l0.5-0.1L70.2,36.2z M66.1,34l0.6,0.3l0.1-0.1h-0.2l-0.2-0.1l0.3-0.1h0.6l0.2,0.1v-0.1l0.1-0.1l-0.1-0.1h-0.1l-0.3-0.1
				l-0.3,0.1l-0.4-0.1h-0.1L66.1,34z M65,35.1l-0.1-0.3l-0.1,0.1v0.1l-0.1,0.1l0.1,0.1l-0.1,0.2h0.2l0.3-0.1V35.1z M64.4,35.1
				l-0.2-0.1L64,35l-0.1-0.1L63.8,35l0.3,0.2l0.2-0.1L64.4,35.1z M64,34.5l-0.4-0.1h-0.2l-0.6-0.1h-0.6v0.1l0.8,0.1l0.3,0.1H64
				l0.1,0.1l0.1-0.1L64,34.5l0.1-0.1H64L64,34.5z M62.7,33.5l-0.4,0.1H62l0.7,0.1L63,34h0.6l0.6-0.1v-0.1l0.1-0.1h0.1l-0.1-0.1h-0.1
				l-0.4-0.1h-0.1l-0.5-0.1l-0.4-0.4h-0.5l0.4,0.1L62.7,33.5z M61.4,33l0.1,0.1L62,33l0.1,0.1L62,33h-0.2l-0.1-0.1L61.4,33z
				 M63.4,35.2L63.4,35.2L63.3,35L63,34.7l0.1-0.1l-0.2-0.1l-0.1,0.1h-0.1l-0.3-0.1l-0.2,0.1l0.1,0.1h-0.1l-0.2-0.1l-0.4-0.1
				l-0.1-0.1h-0.1l-0.1,0.1L61,34.4h-0.2l-0.3-0.1l-0.1-0.1l-0.1,0.1v0.1l0.2,0.2l0.4,0.2l0.6-0.1l0.1,0.1l0.3,0.1l0.1,0.1L62,35.2
				h-0.1v0.1l0.3,0.1v0.1l0.2-0.1l0.3,0.1l0.1-0.1l0.4,0.1l0.1-0.1l-0.3-0.1l-0.3-0.1l-0.2-0.3l-0.3-0.1h0.2l0.4,0.1H63l0.1,0.1
				L63,35.2l0.1,0.1h0.1L63.4,35.2z M18.2,14l0.2-0.1l-0.2,0.3l-0.3,0.2v-0.3L18.2,14z M17.9,14h-0.1l0.1-0.1l-0.1-0.1l0.1-0.1H18
				v0.1l0.1,0.1l0.1-0.1l-0.1-0.1l0.1-0.1l0.2,0.1l0.3,0.4h-0.1l-0.1-0.2l-0.3,0.1L17.9,14L17.9,14z M17.1,14v-0.1l0.2,0.1l0.1-0.1
				v-0.1h0.2l-0.1,0.1v0.1l0.1,0.1l0.2-0.1l0.1,0.1L17.7,14v0.1l-0.1,0.1l-0.1,0.1l-0.1,0.3L17,14.7l0.1-0.1v-0.1l0.1-0.1l0.1-0.1
				l0.1-0.2V14L17.4,14v0.1h-0.1L17.1,14z M16.7,14L16.5,14L16.7,14L16.7,14l0.1-0.2h0.4L16.9,14V14l-0.1,0.1L16.7,14z M16.8,12.8
				L16.5,13v-0.1l0.4-0.3l0.1-0.1h0.1l0.2-0.2l0.1-0.1l0.1,0.1l-0.1,0.1l-0.4,0.4H16.8z M15.8,14.7h0.1v0.1L15.8,14.7L15.8,14.7
				L15.8,14.7z M15,15.5L15,15.5v0.1h0.2l0.1,0.1v-0.1l0.1-0.2l-0.1-0.3h-0.1l0.1,0.1l-0.1,0.1h-0.2L15,15.5z M14.4,14.4l0.1-0.1
				l0.1-0.1v0.1h0.1l0.2-0.1l0.1-0.1V14l0.1-0.1L15,13.7v-0.1l0.2-0.1h0.1l-0.1,0.1l0.1,0.1l0.2,0.1L15.4,14l-0.1,0.1l-0.2,0.1v0.1
				h-0.1l-0.2,0.2h-0.1L14.4,14.4L14.4,14.4z M12.8,16.3l0.1,0.2l0.4-0.1h0.2l0.1-0.2L13.6,16l-0.1-0.2v-0.1h-0.1v0.1l-0.2,0.2
				L13,16.3L12.8,16.3z M14.6,55.4l-0.1-0.7l-0.3-0.3l-0.3,0.1l-0.7,0.8l-0.6,1.9l-0.1,0.4l0.2,0.8l0.7-0.2l0.2-0.1L14.6,55.4z
				 M12.9,13.9l0.1-0.1l0.2-0.1l0.1-0.1l0.2-0.1h0.1l0.1,0.1l-0.1,0.2l-0.1,0.1l0.1,0.1l0.1-0.1l0.1-0.1v-0.2l0.1-0.1v-0.1l-0.1,0.1
				v-0.1l0.3-0.3l0.1-0.1L14.3,13l-0.1,0.2l0.1-0.1v0.3l0.1,0.1l-0.2,0.2l0.1,0.1V14l-0.1-0.1l-0.1-0.1L13.8,14l0.1,0.1H14l-0.1,0.2
				l-0.1,0.1l-0.2,0.1l0.1-0.1l0.1-0.1l-0.1-0.1h-0.1l-0.1,0.1l-0.1,0.3l0.1,0.1h0.1L13.6,15l-0.4,0.2h-0.1l-0.1-0.1l-0.1,0.2
				l0.1,0.1h-0.2l-0.1,0.1h0.1v0.1l-0.1,0.1l-0.1,0.1h-0.1l-0.1-0.1h-0.1L12.3,16l-0.2-0.1L11.9,16v-0.1l0.2-0.3l0.4-0.3v0.1
				l0.3-0.2V15L12.7,15V15l0.2-0.2l0.1-0.1l0.1-0.1h0.1v-0.1h0.1l0.1-0.1h-0.2l-0.1-0.1h-0.1L13,14.4l-0.1-0.1l0.2-0.2l0.1-0.1h-0.1
				L13,14.2h-0.1L12.8,14L12.9,13.9z M10.7,17.8L10.7,17.8l-0.1,0.1l-0.1,0.1l0.1-0.1l0.2-0.1l0.1-0.1l0.1-0.2L11,17.5l-0.1,0.1
				l0.2-0.3l-0.1-0.1l-0.1-0.1V17l0.1-0.1l0.2-0.1l-0.1,0.4h0.2l0.1-0.1L11.3,17l0.1-0.2h0.5v-0.3h-0.1l-0.1-0.1l-0.2-0.1v-0.1h-0.2
				L11,16.5l-0.1,0.1l-0.1,0.3h-0.1V17l0.1,0.1l-0.1,0.3l0.1-0.1h0.1v0.2l-0.2,0.1v0.2L10.7,17.8z M8.8,16L8.6,16l-0.2,0.2l-0.1,0.3
				H8.2l0.1,0.1l0.1-0.1l0.1,0.1l0.1-0.1v-0.1L8.8,16z M8.1,14.7l0.2,0.1h0.1l0.3-0.2l0.1-0.3L9,14L9.1,14l-0.2,0.1l-0.1,0.1
				l-0.6,0.4L8.1,14.7z M8.3,20.5l-0.2-0.1H8l-0.2-0.1l-0.1,0.1l0.1,0.1l0.1,0.1L8,20.6l0.1-0.1v0.1l-0.3,0.1l-0.1,0.1l0.1-0.1h0.1
				l0.3,0.1L8.3,20.5z M8.4,18.1L8.4,18.1l-0.1-0.2H8v0.1L7.8,18l-0.1,0.1l0.1,0.1l-0.1,0.1l-0.1,0.1l0.1,0.2l0.1-0.1l0.1-0.2
				L8,18.3L8,18.3v0.2l0.1-0.2h0.1L8.6,18L8.4,18.1z M7.7,23L7.7,23l-0.5,0.2v0.2l-0.1,0.1l0.1-0.1l0.1-0.2L7.7,23z M7,20.2
				l-0.1,0.1v-0.2l0.3-0.2l0.1-0.1l-0.1,0.3h0.1v0.2l-0.1,0.1v-0.1L7,20.2z M7,22l0.2-0.4H7.1v-0.3L7,21.1l-0.2,0.1l-0.1,0.4
				l-0.1,0.1l-0.1,0.1l-0.1,0.4l0.1,0.1v0.1l-0.1,0.1l-0.1,0.1l0.1,0.1v-0.1l0.1,0.1l0.1,0.1l-0.1,0.1l0.2-0.2l-0.1-0.1v-0.1
				l0.1-0.1H7v-0.1l-0.1-0.1l0.1-0.2L7,21.9L7,22z M6.5,23.6l-0.1,0.1l-0.1,0.2L6,24.3l0.1-0.1l0.1-0.3l0.1-0.2L6.5,23.6L6.5,23.6z
				 M5.7,17.7L6,17.5l0.1-0.1l0.3-0.3L6.5,17l0.1-0.3l-0.2,0.1L6.2,17H6.2v-0.1L6,17.3L5.7,17.7z M5.9,19.9L5.9,19.9l-0.1,0.1v0.1
				l-0.2,0.2l-0.1,0.4l0.1,0.1l-0.2,0.2H5.3L5.2,21l-0.2,0.1l-0.1,0.1l-0.1,0.1L4.7,21L5,20.5l0.1-0.1l0.2-0.1l0.1-0.4l0.1,0.3
				L5.9,19.9z M4.3,22.3v-0.2l-0.1,0.1l-0.1,0.2l-0.2,0.4h0.1l0.1-0.1v0.1l0.1-0.1L4.3,22.3z M5.2,23.1v-0.2l0.4-0.5H5.2l-0.1-0.1
				l0.1-0.1l-0.2,0.1H4.9v0.2l-0.1,0.4v0.1L4.6,23l-0.1,0.1l-0.2,0.1v0.1l-0.1,0.1v0.3l-0.5,0.5l0.1,0.1l-0.1,0.1H3.7v0.3l0.2-0.1
				v-0.1l0.2-0.1l0.2-0.3l0.1-0.1v0.2l-0.1,0.4l0.1,0.1l0.1-0.1l0.1-0.2v-0.1l0.1-0.1l-0.1-0.1v-0.1l0.1-0.1h0.2l0.1-0.4L5,23.3
				l-0.1,0.1l-0.1,0.1v-0.1l0.3-0.2h0.1L5.2,23.1z M3.7,25l-0.1-0.1H3.5l-0.1-0.1H3.3l-0.2,0.6L3,25.6l-0.4,0.3L2.6,26v0.2l-0.1,0.1
				l-0.1,0.1l-0.3,0.4l0.1,0.1l0.4-0.2v-0.3L2.9,26l0.1,0.1l0.1,0.1l0.1-0.1l0.1-0.2l0.1-0.4l-0.1-0.2h0.1l0.1-0.1V25z M6,20.6v0.2
				L6,21.1l-0.1,0.1l0.2,0.1L6.4,21l0.1-0.2l0.1-0.1h0.1l0.1-0.1H7L7,20.6l0.1-0.1v0.1l0.1-0.1v0.1l0.1-0.1h0.1v0.1l0.1-0.2v-0.1
				L7.5,20v-0.2l-0.1-0.1v-0.3L7.7,19l-0.1-0.1H7.5l0.1-0.1l0.1-0.1l-0.1-0.1l-0.1-0.3l-0.9,0.7l-0.1-0.1v0.2l-0.3,0.4l-0.1,0.1H6
				v-0.1L6,19.5v-0.1l-0.1,0.1v-0.1L6,19.3H5.7l-0.1,0.3L5,20.2l-0.4,0.6l0.1,0.4H4.5l-0.1-0.1l-0.3-0.1v-0.3h0.1l0.1-0.1l0.1,0.1
				l0.1-0.1v-0.4L4.8,20l0.4-0.1l0.1-0.2v-0.1l-0.2,0.1H4.9l-0.1,0.1l-0.2-0.1l0.1,0.1v0.1l0.1,0.1l-0.3,0.3l-0.1,0.1l-0.1,0.1v-0.1
				l-0.5,0.6l-0.3,0.4l-0.4,0.5L2.9,22l-0.3,0.6l-0.2,0.1l-0.1,0.1V23L2,23.4h0.1l0.4-0.2l0.2-0.4l0.1-0.1l0.2-0.2l-0.1,0.3
				l-0.1,0.6L3,23.2l0.1-0.1l0.1-0.1l0.1-0.1l0.1-0.1l0.1-0.2v-0.1l0.2-0.3v-0.1l0.1-0.3H3.7v-0.6L3.8,21l0.1,0.1l0.1,0.2L4,21.2
				l0.1,0.1l0.1,0.1l-0.1,0.3l-0.1,0.1L3.9,22l-0.1,0.1l-0.1,0.3l0.2-0.1l0.4-0.5l0.1-0.1l0.4-0.3v0.4l-0.1,0.2l0.1,0.1L4.9,22
				L5,21.8l0.1-0.1v-0.2l0.1-0.2h0.1v0.1l0.1,0.1h0.1v0.1l-0.1,0.1v0.2h0.1L5.5,22h0.1v-0.1l0.1-0.1l0.1-0.1l0.1-0.1l-0.1-0.1v-0.1
				l-0.1-0.4l0.1-0.2L6,20.6z M87.6,29.8l-0.2,1.1l-1.1,0.6l-0.9,0.4c0,0-0.8,0.3-0.9,0.3c-1.1,0.3-2.1,0.9-3.1,1.4
				c0,0,0.1-0.1,0.1-0.1c-0.3,0-0.6,0.1-0.9,0.1c0,0,0.2-0.1,0.1-0.1c-0.9,0.2-1.9,0.2-2.6,0.6c0,0-0.1-0.3-0.1-0.3
				c-0.3,0.1-0.7,0.1-1,0.3c0.6-0.1,1,0.1,1.5,0.3c-0.1,0.1-0.3,0.2-0.5,0.2c0.8,0,2.3-0.5,3.1-0.9c-1.9,0.9-3.7,2-5.8,2.4
				c0.2-0.1,0.4-0.1,0.6-0.2c-0.9,0.1-1.6,0.6-2.5,0.8c-0.8,0.2-1.8,0.1-2.6,0.2c0.9,0.1,1.7-0.2,2.6-0.1c-5,2.1-11,0.7-16-0.9
				c-2.6-0.8-5.1-1.7-7.7-2.6c-2.6-0.9-5.2-0.9-7.9-1c-3.7-0.1-6.8,1.1-9.7,3.3l-3.7,3.4l-2.9,2.5c-1.4,1.9-4.1,4-4.4,6.5
				c-0.3,2.1-0.1,4-0.8,6.1c-0.5,1.7-1.3,3.2-2.2,4.7l-0.6,0.9c0,0-0.8,0.8-0.8,0.8c-4.2,4.2-8.9-0.5-8.7-5.2
				c0.1-2.5,1.2-3.8,2.5-5.7l0.6-1.5l0.6-1v-0.7l-0.3-0.7c0,0-1.1-1.6-1.1-1.7c-2.1-3.2-5.3-5.5-7.5-8.5C0.6,32-0.5,26.6,1,22.7
				C2.2,19.6,4.8,17,7.4,15c1-0.8,2.1-1.5,3.2-2.2c-0.1,0.2-0.2,0.2-0.3,0.3c0.7-0.1,1.7-1.4,2.7-1.7c-0.9,0.3-1.2,1.2-2,1.6
				c0,0,0.2,0.2,0.2,0.1c0.4-0.4,0.8-0.8,1.3-1.1c-0.3,0.5-0.9,1.2-1.6,1.4c-0.4-0.1-0.7,0.4-1,0.9c0.2-0.2,0.4-0.3,0.6-0.5
				c-0.2,0.4-0.3,0.6-0.5,0.8c0,0.2,0,0.3-0.1,0.5c0.9-0.9,1.9-2,3.1-2.6c-0.2,0.2-0.3,0.5-0.6,0.8c0-0.2,0.3,0.1,0.3,0.1
				c-0.1,0.1-0.3,0.2-0.3,0.3c0.2,0,0.3,0,0.4,0c-0.2,0-0.4,0-0.6,0c-0.1,0.4-0.3,0.5-0.5,0.8c0.1-0.2,0.1-0.4,0.1-0.6
				c-0.5,0.3-0.9,0.8-1,1.2c-0.5,0.2-0.9,0.8-1.1,1.1c-0.1,0-0.2-0.1-0.3-0.1c-0.5,0.6-1.2,1.2-0.5,1.8c0.3-0.4,0.7-0.8,1.1-1.2
				c-0.1,0.2-0.2,0.4-0.3,0.6c0.4-0.1,0.7-0.5,0.8-0.9c0-0.1-0.2,0-0.2,0c0.1-0.2,0.2-0.4,0.3-0.5c-0.1,0.1-0.2,0.1-0.3,0.2
				c0.1-0.3,0.4-0.7,0.5-0.8c0,0,0.2,0.1,0.1,0.1c0.1,0,0.2-0.2,0.3-0.2c0.1,0,0,0.2,0,0.2c0.3-0.3,0.6-0.6,0.9-0.8
				c-0.1,0.2-0.1-0.1-0.1-0.1c0.2-0.1,0.4-0.1,0.6-0.1c0,0.2-0.1,0.1,0.1,0.2c-0.3,0.6-1.5,1.5-0.6,2.1c0.7-0.5,1.3-1.6,2.2-1.7
				c-0.3,0.5-0.1,0.3-0.1,0.6c-0.1-0.7,2.7-2.1,3.5-2.7c0.1,0.2,0.3,0.3,0.4,0.5c0,0-0.3,0.2-0.3,0.3c0-0.1,0.1-0.2,0-0.3
				c-0.5,0-1.1,0.2-1.5,0.6c0,0,0,0.2,0,0.2c-0.1,0-0.2-0.1-0.3,0c0,0.1-0.2,0.5-0.2,0.5c0.2-0.1,0.1,0.2,0.1,0.2
				c-0.1,0-0.3-0.1-0.4-0.1c0,0-0.2,0.3-0.2,0.3c0.2,0.1,0.1,0.1,0.2,0.3c0.1,0.1,0.2-0.1,0.2,0c-0.1,0.1-0.1,0.2-0.2,0.4
				c0.1,0.1,0.1,0.2,0.1,0.3c0,0,0.2,0.3,0.3,0.4c-0.2,0-0.3,0.1-0.4,0.1c0,0,0.2,0,0.2,0c-0.1,0.2-0.3,0.3-0.4,0.5
				c0,0,0.3,0.1,0.3,0.1c0.1,0,0.2-0.2,0.3-0.3c0,0,0.1,0.3,0.1,0.3c0,0.1,0.4-0.1,0.3-0.1c0-0.1-0.2-0.2-0.2-0.3
				c0.2-0.2,0.5-0.4,0.7-0.4c0,0.1,0,0.3-0.1,0.4c0.9-0.6,0.6-1.8,2.1-2.3c0,0.1,0,0.3,0.1,0.3c-0.2,0.1-0.3,0.2-0.5,0.4
				c0.1,0,0.3-0.1,0.3-0.1c0.1,0.1-0.1,0.2,0.1,0.3c0-0.1,0.1-0.4,0.1-0.5c0.9,1.5-0.2,3.5-1.1,4.7c-1.1,1.3-2.6,1.3-3.7,2.7
				c-2,2.6-4.4,5.6-4.6,9.1c-0.2,2.6,1.6,4.7,3.4,6.4l2.3,2.2l0.8,1l1.8,2.1l0.9,0.8l1.5-0.5c0,0,1.7-1.7,1.8-1.8
				c4.3-4.3,8.8-8.5,14.4-10.9l0.4-0.1c7.8-1.9,14.7-1.1,22.4,0.6c3.1,0.7,6,1.6,9.2,1.6c3.4,0,6.7-0.9,10-1.5
				c1.6-0.3,3.2-0.7,4.8-1.1l0.9-0.2l2.2-0.5l0.9-0.1L87.6,29.8z"/>
		</g>
		<polyline id="Fill-4" class="st1" points="0,50.7 1.9,49.9 1.9,38.8 0,38 0,36.7 5.6,36.7 13.1,46.2 13.3,46.2 13.3,38.9 10.8,38 
			10.8,36.7 17.4,36.7 17.4,37.9 15.5,38.7 15.5,52.2 12.7,52.2 4.3,41.6 4.2,41.6 4.2,49.8 6.9,50.7 6.9,52 0,52 0,50.7 		"/>
		<path id="Fill-5" class="st1" d="M23.2,47.2c1.7,0,2.6,1.2,2.6,2.6c0,1.2-0.9,2.4-2.6,2.4c-1.6,0-2.7-1.2-2.7-2.4
			C20.5,48.5,21.6,47.2,23.2,47.2"/>
		<path id="Fill-6" class="st1" d="M53,47.2c1.7,0,2.6,1.2,2.6,2.6c0,1.2-0.9,2.4-2.6,2.4c-1.6,0-2.7-1.2-2.7-2.4
			C50.4,48.5,51.4,47.2,53,47.2"/>
		<path id="Fill-7" class="st1" d="M77,47.2c1.7,0,2.6,1.2,2.6,2.6c0,1.2-0.9,2.4-2.6,2.4c-1.6,0-2.7-1.2-2.7-2.4
			C74.4,48.5,75.4,47.2,77,47.2"/>
		<path id="Fill-8" class="st1" d="M106.2,47.2c1.7,0,2.6,1.2,2.6,2.6c0,1.2-0.9,2.4-2.6,2.4c-1.6,0-2.7-1.2-2.7-2.4
			C103.6,48.5,104.6,47.2,106.2,47.2"/>
		<path id="Fill-9" class="st1" d="M34.7,46h3.7l-1.8-4.9h-0.2L34.7,46z M38.4,50.7l1.5-0.4l-1-2.9h-4.8l-1,2.7l2,0.5V52h-5.9v-1.3
			l1.5-0.4l5.7-13.8h3l5.1,13.8l1.3,0.4V52h-7.4V50.7z"/>
		<polyline id="Fill-10" class="st1" points="60.7,50.7 62.7,50 62.7,38.7 60.7,38 60.7,36.7 68.9,36.7 68.9,37.9 67,38.6 67,50 
			68.9,50.7 68.9,52 60.7,52 60.7,50.7 		"/>
		<polyline id="Fill-11" class="st1" points="85.2,50.7 87.2,50 87.2,38.7 85.2,38 85.2,36.7 93.5,36.7 93.5,37.9 91.6,38.6 
			91.6,50.2 94.9,50.2 97.3,46.6 98.8,47.1 98,52 85.2,52 85.2,50.7 		"/>
	</g>
</g>
</svg>
